<mxfile host="65bd71144e">
    <diagram id="66qfyHdEXxqzabhES-m_" name="Page-1">
        <mxGraphModel dx="834" dy="647" grid="1" gridSize="10" guides="1" tooltips="1" connect="1" arrows="1" fold="1" page="1" pageScale="1" pageWidth="850" pageHeight="1100" math="0" shadow="0">
            <root>
                <mxCell id="0"/>
                <mxCell id="1" parent="0"/>
                <mxCell id="2" value="" style="shape=umlLifeline;participant=umlActor;perimeter=lifelinePerimeter;whiteSpace=wrap;html=1;container=1;collapsible=0;recursiveResize=0;verticalAlign=top;spacingTop=36;outlineConnect=0;size=70;" vertex="1" parent="1">
                    <mxGeometry x="315" y="230" width="40" height="550" as="geometry"/>
                </mxCell>
                <mxCell id="3" value="&lt;font style=&quot;font-size: 20px;&quot;&gt;Web UI&lt;/font&gt;" style="shape=umlLifeline;perimeter=lifelinePerimeter;whiteSpace=wrap;html=1;container=1;collapsible=0;recursiveResize=0;outlineConnect=0;size=60;" vertex="1" parent="1">
                    <mxGeometry x="415" y="230" width="125" height="560" as="geometry"/>
                </mxCell>
                <mxCell id="4" value="send the request" style="html=1;verticalAlign=bottom;endArrow=block;entryX=-0.084;entryY=0.029;entryDx=0;entryDy=0;entryPerimeter=0;labelBackgroundColor=none;" edge="1" parent="3" source="5">
                    <mxGeometry width="80" relative="1" as="geometry">
                        <mxPoint x="60" y="130" as="sourcePoint"/>
                        <mxPoint x="223.16000000000008" y="130.14999999999998" as="targetPoint"/>
                    </mxGeometry>
                </mxCell>
                <mxCell id="5" value="" style="html=1;points=[];perimeter=orthogonalPerimeter;verticalAlign=middle;fillStyle=auto;rounded=0;glass=0;shadow=0;fillColor=#f5f5f5;gradientColor=#b3b3b3;strokeColor=#666666;" vertex="1" parent="3">
                    <mxGeometry x="57.5" y="114" width="10" height="386" as="geometry"/>
                </mxCell>
                <mxCell id="6" value="&lt;font style=&quot;&quot;&gt;&lt;font style=&quot;font-size: 20px;&quot;&gt;Middleware&lt;/font&gt;&lt;br&gt;&lt;/font&gt;" style="shape=umlLifeline;perimeter=lifelinePerimeter;whiteSpace=wrap;html=1;container=1;collapsible=0;recursiveResize=0;outlineConnect=0;size=60;" vertex="1" parent="1">
                    <mxGeometry x="574" y="230" width="140" height="600" as="geometry"/>
                </mxCell>
                <mxCell id="7" value="" style="html=1;points=[];perimeter=orthogonalPerimeter;fontSize=11;fillColor=#f5f5f5;gradientColor=#b3b3b3;strokeColor=#666666;" vertex="1" parent="6">
                    <mxGeometry x="65" y="126.5" width="10" height="133.5" as="geometry"/>
                </mxCell>
                <mxCell id="8" value="ok" style="html=1;verticalAlign=bottom;endArrow=open;dashed=1;endSize=8;labelBackgroundColor=none;fontSize=9;exitX=-0.1;exitY=0.968;exitDx=0;exitDy=0;exitPerimeter=0;" edge="1" parent="6">
                    <mxGeometry relative="1" as="geometry">
                        <mxPoint x="560" y="468.00800000000004" as="sourcePoint"/>
                        <mxPoint x="416.0003448275861" y="468.0039999999999" as="targetPoint"/>
                    </mxGeometry>
                </mxCell>
                <mxCell id="9" value="show message" style="html=1;verticalAlign=bottom;endArrow=open;dashed=1;endSize=8;labelBackgroundColor=none;fontSize=9;" edge="1" parent="6">
                    <mxGeometry relative="1" as="geometry">
                        <mxPoint x="-103.99999999999989" y="498" as="sourcePoint"/>
                        <mxPoint x="-233.9996551724139" y="498.0039999999999" as="targetPoint"/>
                    </mxGeometry>
                </mxCell>
                <mxCell id="10" value="response the final message" style="html=1;verticalAlign=bottom;endArrow=open;dashed=1;endSize=8;labelBackgroundColor=none;fontSize=9;exitX=-0.092;exitY=0.877;exitDx=0;exitDy=0;exitPerimeter=0;" edge="1" parent="6">
                    <mxGeometry relative="1" as="geometry">
                        <mxPoint x="239.5" y="487.0039999999999" as="sourcePoint"/>
                        <mxPoint x="-93.99999999999989" y="487" as="targetPoint"/>
                    </mxGeometry>
                </mxCell>
                <mxCell id="11" value="response back" style="html=1;verticalAlign=bottom;endArrow=open;dashed=1;endSize=8;labelBackgroundColor=none;fontSize=9;exitX=-0.1;exitY=0.968;exitDx=0;exitDy=0;exitPerimeter=0;entryX=1.117;entryY=0.986;entryDx=0;entryDy=0;entryPerimeter=0;" edge="1" parent="6">
                    <mxGeometry relative="1" as="geometry">
                        <mxPoint x="406" y="476.00800000000004" as="sourcePoint"/>
                        <mxPoint x="250.67000000000007" y="476.0339999999999" as="targetPoint"/>
                    </mxGeometry>
                </mxCell>
                <mxCell id="12" value="&lt;span style=&quot;font-size: 20px;&quot;&gt;Domain&lt;br&gt;Service&lt;br&gt;&lt;/span&gt;" style="shape=umlLifeline;perimeter=lifelinePerimeter;whiteSpace=wrap;html=1;container=1;collapsible=0;recursiveResize=0;outlineConnect=0;size=60;" vertex="1" parent="1">
                    <mxGeometry x="925" y="230" width="120" height="560" as="geometry"/>
                </mxCell>
                <mxCell id="13" value="&lt;font style=&quot;font-size: 11px;&quot;&gt;pass the request&lt;br&gt;&lt;/font&gt;" style="html=1;verticalAlign=bottom;endArrow=block;fontSize=14;labelBackgroundColor=none;entryX=0.043;entryY=0.088;entryDx=0;entryDy=0;entryPerimeter=0;" edge="1" parent="12">
                    <mxGeometry relative="1" as="geometry">
                        <mxPoint x="-101.5" y="336" as="sourcePoint"/>
                        <mxPoint x="55.430000000000064" y="335.9359999999999" as="targetPoint"/>
                    </mxGeometry>
                </mxCell>
                <mxCell id="14" value="" style="html=1;points=[];perimeter=orthogonalPerimeter;rounded=0;shadow=0;glass=0;sketch=0;fillStyle=auto;fontSize=14;fillColor=#f5f5f5;gradientColor=#b3b3b3;strokeColor=#666666;" vertex="1" parent="12">
                    <mxGeometry x="55" y="333" width="10" height="147" as="geometry"/>
                </mxCell>
                <mxCell id="15" value="&lt;font style=&quot;font-size: 11px;&quot;&gt;clicks on wanted signal&lt;br&gt;to be deleted&lt;br&gt;&lt;/font&gt;" style="html=1;verticalAlign=bottom;endArrow=block;fontSize=22;labelBackgroundColor=none;" edge="1" parent="1" target="5">
                    <mxGeometry x="0.0036" width="80" relative="1" as="geometry">
                        <mxPoint x="335" y="349.9999999999999" as="sourcePoint"/>
                        <mxPoint x="465" y="350" as="targetPoint"/>
                        <Array as="points"/>
                        <mxPoint as="offset"/>
                    </mxGeometry>
                </mxCell>
                <mxCell id="16" value="&lt;font style=&quot;font-size: 20px;&quot;&gt;Application Service&lt;/font&gt;" style="shape=umlLifeline;perimeter=lifelinePerimeter;whiteSpace=wrap;html=1;container=1;collapsible=0;recursiveResize=0;outlineConnect=0;size=60;" vertex="1" parent="1">
                    <mxGeometry x="755" y="230" width="127" height="550" as="geometry"/>
                </mxCell>
                <mxCell id="17" value="" style="html=1;points=[];perimeter=orthogonalPerimeter;rounded=0;shadow=0;glass=0;sketch=0;fillStyle=auto;fontSize=14;fillColor=#f5f5f5;gradientColor=#b3b3b3;strokeColor=#666666;" vertex="1" parent="16">
                    <mxGeometry x="58.5" y="245" width="10" height="245" as="geometry"/>
                </mxCell>
                <mxCell id="18" value="" style="html=1;points=[];perimeter=orthogonalPerimeter;fillColor=#f5f5f5;gradientColor=#b3b3b3;strokeColor=#666666;" vertex="1" parent="1">
                    <mxGeometry x="330" y="344" width="10" height="386" as="geometry"/>
                </mxCell>
                <mxCell id="19" value="&lt;span style=&quot;font-size: 20px;&quot;&gt;Database&lt;br&gt;&lt;/span&gt;" style="shape=umlLifeline;perimeter=lifelinePerimeter;whiteSpace=wrap;html=1;container=1;collapsible=0;recursiveResize=0;outlineConnect=0;size=60;" vertex="1" parent="1">
                    <mxGeometry x="1080" y="230" width="120" height="470" as="geometry"/>
                </mxCell>
                <mxCell id="20" value="&lt;font style=&quot;font-size: 11px;&quot;&gt;signal exists or not&lt;br&gt;&lt;/font&gt;" style="html=1;verticalAlign=bottom;endArrow=block;fontSize=14;labelBackgroundColor=none;entryX=0.044;entryY=0.016;entryDx=0;entryDy=0;entryPerimeter=0;" edge="1" parent="19" target="21">
                    <mxGeometry relative="1" as="geometry">
                        <mxPoint x="-90" y="351" as="sourcePoint"/>
                        <mxPoint x="64" y="351" as="targetPoint"/>
                    </mxGeometry>
                </mxCell>
                <mxCell id="21" value="" style="html=1;points=[];perimeter=orthogonalPerimeter;rounded=0;shadow=0;glass=0;sketch=0;fillStyle=auto;fontSize=14;fillColor=#f5f5f5;gradientColor=#b3b3b3;strokeColor=#666666;" vertex="1" parent="19">
                    <mxGeometry x="55" y="349" width="10" height="121" as="geometry"/>
                </mxCell>
                <mxCell id="22" value="opt" style="shape=umlFrame;whiteSpace=wrap;html=1;fontSize=10;width=47;height=20;" vertex="1" parent="1">
                    <mxGeometry x="264" y="381" width="417" height="79" as="geometry"/>
                </mxCell>
                <mxCell id="23" value="error response" style="html=1;verticalAlign=bottom;endArrow=open;dashed=1;endSize=8;labelBackgroundColor=none;fontSize=9;entryX=0.518;entryY=0.3;entryDx=0;entryDy=0;entryPerimeter=0;" edge="1" parent="1" target="22">
                    <mxGeometry relative="1" as="geometry">
                        <mxPoint x="637" y="405" as="sourcePoint"/>
                        <mxPoint x="507.0003448275861" y="405.0039999999999" as="targetPoint"/>
                    </mxGeometry>
                </mxCell>
                <mxCell id="24" value="show error message" style="html=1;verticalAlign=bottom;endArrow=open;dashed=1;endSize=8;labelBackgroundColor=none;fontSize=9;" edge="1" parent="1">
                    <mxGeometry relative="1" as="geometry">
                        <mxPoint x="471.99000000000024" y="420.47" as="sourcePoint"/>
                        <mxPoint x="340" y="420" as="targetPoint"/>
                    </mxGeometry>
                </mxCell>
                <mxCell id="25" value="&lt;span style=&quot;border-color: rgb(0, 0, 0); color: rgb(240, 240, 240); font-family: Helvetica; font-style: normal; font-variant-ligatures: normal; font-variant-caps: normal; letter-spacing: normal; orphans: 2; text-indent: 0px; text-transform: none; widows: 2; word-spacing: 0px; -webkit-text-stroke-width: 0px; text-decoration-thickness: initial; text-decoration-style: initial; text-decoration-color: initial; font-size: 9px; font-weight: 700; text-align: center; background-color: rgb(42, 37, 47); float: none; display: inline !important;&quot;&gt;[credentials not valid or expired&lt;/span&gt;&lt;span style=&quot;border-color: rgb(0, 0, 0); color: rgb(240, 240, 240); font-family: Helvetica; font-style: normal; font-variant-ligatures: normal; font-variant-caps: normal; letter-spacing: normal; orphans: 2; text-indent: 0px; text-transform: none; widows: 2; word-spacing: 0px; -webkit-text-stroke-width: 0px; text-decoration-thickness: initial; text-decoration-style: initial; text-decoration-color: initial; font-size: 9px; font-weight: 700; text-align: center; background-color: rgb(42, 37, 47); float: none; display: inline !important;&quot;&gt;]&lt;/span&gt;" style="text;whiteSpace=wrap;html=1;" vertex="1" parent="1">
                    <mxGeometry x="270" y="401" width="60" height="40" as="geometry"/>
                </mxCell>
                <mxCell id="26" value="&lt;font style=&quot;font-size: 11px;&quot;&gt;pass the request&lt;br&gt;&lt;/font&gt;" style="html=1;verticalAlign=bottom;endArrow=block;fontSize=14;labelBackgroundColor=none;" edge="1" parent="1">
                    <mxGeometry relative="1" as="geometry">
                        <mxPoint x="649.5" y="479" as="sourcePoint"/>
                        <mxPoint x="813.5" y="479" as="targetPoint"/>
                    </mxGeometry>
                </mxCell>
                <mxCell id="27" value="opt" style="shape=umlFrame;whiteSpace=wrap;html=1;fontSize=10;width=47;height=20;" vertex="1" parent="1">
                    <mxGeometry x="739" y="591" width="417" height="89" as="geometry"/>
                </mxCell>
                <mxCell id="28" value="&lt;div style=&quot;text-align: center;&quot;&gt;&lt;span style=&quot;background-color: initial;&quot;&gt;&lt;font size=&quot;1&quot;&gt;&lt;b&gt;[if signal does not exist]&lt;/b&gt;&lt;/font&gt;&lt;/span&gt;&lt;/div&gt;" style="text;whiteSpace=wrap;html=1;" vertex="1" parent="1">
                    <mxGeometry x="740" y="610" width="70" height="45.5" as="geometry"/>
                </mxCell>
                <mxCell id="29" value="no signal" style="html=1;verticalAlign=bottom;endArrow=open;dashed=1;endSize=8;labelBackgroundColor=none;fontSize=9;exitX=-0.1;exitY=0.968;exitDx=0;exitDy=0;exitPerimeter=0;" edge="1" parent="1">
                    <mxGeometry relative="1" as="geometry">
                        <mxPoint x="1134" y="610.008" as="sourcePoint"/>
                        <mxPoint x="990.0003448275861" y="610.0039999999999" as="targetPoint"/>
                    </mxGeometry>
                </mxCell>
                <mxCell id="30" value="response back" style="html=1;verticalAlign=bottom;endArrow=open;dashed=1;endSize=8;labelBackgroundColor=none;fontSize=9;exitX=-0.1;exitY=0.968;exitDx=0;exitDy=0;exitPerimeter=0;entryX=1.117;entryY=0.986;entryDx=0;entryDy=0;entryPerimeter=0;" edge="1" parent="1">
                    <mxGeometry relative="1" as="geometry">
                        <mxPoint x="978.3299999999999" y="619.998" as="sourcePoint"/>
                        <mxPoint x="823" y="620.0239999999999" as="targetPoint"/>
                    </mxGeometry>
                </mxCell>
            </root>
        </mxGraphModel>
    </diagram>
</mxfile>